<svg id="visual" viewBox="0 0 1920 1080" width="1920" height="1080" xmlns="http://www.w3.org/2000/svg" xmlns:xlink="http://www.w3.org/1999/xlink" version="1.1"><path d="M0 819L40 839.8C80 860.7 160 902.3 240 897C320 891.7 400 839.3 480 828.2C560 817 640 847 720 871.2C800 895.3 880 913.7 960 889.3C1040 865 1120 798 1200 776.8C1280 755.7 1360 780.3 1440 795.7C1520 811 1600 817 1680 822.7C1760 828.3 1840 833.7 1880 836.3L1920 839L1920 1081L1880 1081C1840 1081 1760 1081 1680 1081C1600 1081 1520 1081 1440 1081C1360 1081 1280 1081 1200 1081C1120 1081 1040 1081 960 1081C880 1081 800 1081 720 1081C640 1081 560 1081 480 1081C400 1081 320 1081 240 1081C160 1081 80 1081 40 1081L0 1081Z" fill="#ff0000"></path><path d="M0 853L40 853.7C80 854.3 160 855.7 240 876.2C320 896.7 400 936.3 480 935C560 933.7 640 891.3 720 890.5C800 889.7 880 930.3 960 945.7C1040 961 1120 951 1200 952C1280 953 1360 965 1440 974.5C1520 984 1600 991 1680 983.5C1760 976 1840 954 1880 943L1920 932L1920 1081L1880 1081C1840 1081 1760 1081 1680 1081C1600 1081 1520 1081 1440 1081C1360 1081 1280 1081 1200 1081C1120 1081 1040 1081 960 1081C880 1081 800 1081 720 1081C640 1081 560 1081 480 1081C400 1081 320 1081 240 1081C160 1081 80 1081 40 1081L0 1081Z" fill="#0598f6"></path></svg>